<svg xmlns="http://www.w3.org/2000/svg" width="288.851" height="403.774" viewBox="0 0 288.851 403.774">
  <g id="Group_14" data-name="Group 14" transform="translate(327.271 -9.261) rotate(90)" opacity="0.056">
    <path id="Path_9" data-name="Path 9" d="M446.317,735.019c3.29-19.734,9.888-38.493,22.114-54.747,9.193-12.238,9.114-19.241-5.146-29.646-57.989-42.313-55.325-47.12-3.344-91.705,11.888-10.192,17.474-15.023,5.188-28.742-13.891-15.51-19.829-35.631-25.838-55.514-4.076-13.5-.339-15.153,12.226-13.4,59.049,8.223,96.779,41.569,115.966,96.971,5.474,15.814,9.538,31.442,31.729,29.336,8.585-.815,10.887,7.193,10.917,13.867.024,7-3.374,14.035-11.441,14-19.657-.084-23.446,13.457-27.849,28.462C555.066,697.561,521.761,734.167,466,747.394,456.485,749.655,443.669,754.206,446.317,735.019Z" transform="translate(-197.093 -422.269)" fill="#ffc400" fill-rule="evenodd"/>
    <path id="Path_29" data-name="Path 29" d="M465.75,578.9c-9.823-4.081-21.049-1.85-32.007-5.432-29.284-9.56-30.664-10.977-14.785-35.945A150.166,150.166,0,0,1,446.3,505.6c21.435-19.009,28.009-18.748,47.368,2.35,1.916,2.093,5.076,5.348,4.522,7.061-6.818,21.329-13.91,42.587-21.733,63.564C474.989,582.511,469.813,579.381,465.75,578.9Z" transform="translate(-254.061 -268.702)" fill="#ffc400" fill-rule="evenodd"/>
    <path id="Path_30" data-name="Path 30" d="M462.8,463.747c8.723-.244,17.569,2.381,16.57,11.036-2.53,21.889,33.318,36.553,12.322,59.887-20.294,22.536-24.488,21.358-47.275,2.089-11.994-10.133-21.162-22.477-30.241-35.126-9.479-13.213-8.948-22.388,8.127-27.051C435.776,470.892,449.3,467.359,462.8,463.747Z" transform="translate(-258.279 -407.21)" fill="#ffc400" fill-rule="evenodd"/>
    <path id="Path_33" data-name="Path 33" d="M494.365,514.449c.773,27.635-30.164,48.18-54.593,35.607-15.635-8.05-41.5-17.562-38.885-31.793,3.559-19.372,27.939-30.562,47.936-38C467.283,473.393,493.805,494.5,494.365,514.449Z" transform="translate(-294.455 -331.944)" fill="#ffc400" fill-rule="evenodd"/>
    <path id="Path_37" data-name="Path 37" d="M426.728,480.378c18.741-.535,27.873,10.936,22.6,26.059-1.66,4.754-2.4,8.037.815,11.994,11.351,13.952-5.48,16.986-9.977,24.53-5.23,8.776-12.31,5.486-19.093,1.011-3.683-2.426-8.447-3.492-11.618-6.377-9.2-8.389-30.076-13.108-23.941-26.891C392.631,494.717,410.052,483.609,426.728,480.378Z" transform="translate(-375.139 -324.908)" fill="#ffc400" fill-rule="evenodd"/>
    <path id="Path_38" data-name="Path 38" d="M470.085,500.718c-.093,5.593-5.038,6.282-8.549,8.567-9.875,6.425-20.067,12.488-29.281,19.764-8.158,6.438-12.989,6.283-18.533-3.23-6.36-10.912-24.673-19.063-18.171-32.24,8.431-17.094,30.093-18.782,47.2-24.13C450.34,467.08,470.318,491.406,470.085,500.718Z" transform="translate(-326.756 -379.714)" fill="#ffc400" fill-rule="evenodd"/>
    <path id="Path_40" data-name="Path 40" d="M439.123,552.572c-8.812-2.685-22.573-5.944-35.566-11.126-10.679-4.26-11.2-13.737-5.247-22.155,6.371-9.008,14.642-16.652,21.637-25.262,4.279-5.271,7.194-2.041,10.959.387,8.062,5.181,16.884,9.328,24.4,15.178,5.438,4.241,20.484,3.177,14.345,14.291C463.64,534.753,464.539,554.088,439.123,552.572Z" transform="translate(-325.112 -271.312)" fill="#ffc400" fill-rule="evenodd"/>
  </g>
</svg>
