<svg xmlns="http://www.w3.org/2000/svg" width="109.024" height="109.027" viewBox="0 0 109.024 109.027">
  <g id="logo" transform="translate(-345.185 -298.003)">
    <g id="Group_1" data-name="Group 1" transform="translate(345.185 298.003)">
      <path id="Path_1" data-name="Path 1" d="M399.725,298a54.513,54.513,0,1,1-54.535,53.684A54.428,54.428,0,0,1,399.725,298Zm-.093,105.812a60.429,60.429,0,0,0,9.542-.939,51.987,51.987,0,0,0,24.178-11.6,49.487,49.487,0,0,0,17.229-29.716,2.833,2.833,0,0,0-1.905-3.555,4.983,4.983,0,0,1-3.125-5,4.825,4.825,0,0,1,3.2-4.816,3.034,3.034,0,0,0,2.056-3.718,47.866,47.866,0,0,0-8.849-21.9,51.961,51.961,0,0,0-54.918-20.134,51.166,51.166,0,0,0-38.43,41.947c-.315,2.026.277,3.1,2.168,3.815a4.545,4.545,0,0,1,3.118,4.038c.246,2.371-.34,4.378-2.675,5.547-2.383,1.193-2.774,2.054-2.227,4.707a50.143,50.143,0,0,0,15.951,27.845C374.773,399.174,386.4,403.487,399.631,403.816Z" transform="translate(-345.185 -298.003)" fill="#0c0506" fill-rule="evenodd"/>
      <path id="Path_2" data-name="Path 2" d="M407.792,410.862c-13.229-.33-24.858-4.643-34.689-13.477a50.142,50.142,0,0,1-15.951-27.845c-.547-2.653-.156-3.514,2.227-4.707,2.335-1.168,2.921-3.176,2.675-5.547a4.545,4.545,0,0,0-3.118-4.038c-1.891-.714-2.482-1.789-2.168-3.815a51.166,51.166,0,0,1,38.43-41.947,51.961,51.961,0,0,1,54.918,20.134,47.866,47.866,0,0,1,8.85,21.9,3.034,3.034,0,0,1-2.056,3.718,4.825,4.825,0,0,0-3.2,4.816,4.983,4.983,0,0,0,3.125,5,2.833,2.833,0,0,1,1.905,3.555,49.487,49.487,0,0,1-17.229,29.716,51.986,51.986,0,0,1-24.178,11.6A60.428,60.428,0,0,1,407.792,410.862Zm.389-1.326a40.009,40.009,0,0,0,6.336-.431,50.264,50.264,0,0,0,26.851-12.267,48.085,48.085,0,0,0,16.063-27.846c.344-1.828.228-2.2-1.42-3.007a6.027,6.027,0,0,1-3.489-6.1,5.928,5.928,0,0,1,3.765-5.705c1.4-.614,1.751-1.231,1.48-2.737-.337-1.875-.7-3.745-1.211-5.585a50.535,50.535,0,0,0-45.4-36.578,50.051,50.051,0,0,0-13.831,1.034A49.236,49.236,0,0,0,365.8,331.5a51.272,51.272,0,0,0-7.85,20.013c-.261,1.461.063,2.086,1.442,2.611a5.689,5.689,0,0,1,3.573,3.658c1.012,3.019.211,6.807-3.458,8.347a1.911,1.911,0,0,0-1.34,2.292c.2,1.1.429,2.19.709,3.268A50.606,50.606,0,0,0,408.181,409.536Z" transform="translate(-353.346 -305.049)" fill="#eeecec" fill-rule="evenodd"/>
      <path id="Path_3" data-name="Path 3" d="M411.063,412.557a50.606,50.606,0,0,1-49.3-37.844c-.28-1.078-.508-2.172-.709-3.268a1.911,1.911,0,0,1,1.341-2.292c3.669-1.541,4.47-5.329,3.458-8.347a5.69,5.69,0,0,0-3.573-3.658c-1.379-.524-1.7-1.15-1.442-2.611a51.273,51.273,0,0,1,7.85-20.013,49.236,49.236,0,0,1,31.527-21.192,50.054,50.054,0,0,1,13.831-1.035,50.536,50.536,0,0,1,45.4,36.578c.515,1.839.874,3.71,1.211,5.585.271,1.506-.081,2.123-1.48,2.737A5.928,5.928,0,0,0,455.4,362.9a6.027,6.027,0,0,0,3.489,6.1c1.648.806,1.764,1.178,1.42,3.007a48.085,48.085,0,0,1-16.063,27.846A50.264,50.264,0,0,1,417.4,412.126,40.013,40.013,0,0,1,411.063,412.557Zm-24.152-83.643c.966.7,1.951,1.368,2.89,2.1.405.315.631.093.936-.105.459-.3.133-.565-.029-.8-1.207-1.753-2.437-3.489-3.641-5.245-.257-.375-.443-.6-.917-.249s-.154.615.029.894c.573.871,1.159,1.733,1.74,2.6l-.2.2c-.954-.709-1.929-1.392-2.852-2.139-.427-.346-.731-.183-1.047.076-.341.28-.046.506.11.733,1.228,1.78,2.465,3.554,3.678,5.344.25.369.44.47.846.192.46-.314.246-.56.038-.867-.585-.862-1.158-1.732-1.735-2.6A.963.963,0,0,0,386.911,328.914Zm21.723,41.508a2.387,2.387,0,0,1-.55,1.113c-1.638,2.519-3.292,5.029-4.928,7.551-2.01,3.1-1.86,3.666,1.381,5.41,1.746.939,2.684.716,3.76-.911,2.781-4.2,5.574-8.395,8.331-12.611a80.533,80.533,0,0,0,4.458-7.067c.235-.457.654-.85-.175-1.273-.749-.382-.921-.016-1.2.507-.438.833-.885,1.667-1.4,2.453q-5.661,8.628-11.348,17.238a1,1,0,0,1-1.469.417c-.32-.17-.631-.355-.951-.526-1.318-.7-1.352-.862-.528-2.121q3.1-4.728,6.178-9.465c.985-1.516.677-2.121-1.083-2.3-.86-.087-1.721-.136-2.581-.306a11.643,11.643,0,0,1-8.927-14.95,12.3,12.3,0,0,1,18.94-6.193c.615.435.9.355,1.362-.213.571-.706-.1-.806-.4-1.023A13.542,13.542,0,0,0,405.98,343.9a13.4,13.4,0,0,0-10.41,12.265,12.9,12.9,0,0,0,7.616,12.886A16.674,16.674,0,0,0,408.634,370.422Zm2.1,24.206a32.663,32.663,0,0,0,31.1-22.957c.187-.594.241-1.03-.564-1.1-.731-.067-.545.566-.645.885a31.322,31.322,0,0,1-52.528,12.2,30.479,30.479,0,0,1-7.27-12.327c-.085-.273.079-.844-.637-.761-.866.1-.73.549-.56,1.111A32.786,32.786,0,0,0,410.733,394.628Zm-.357-65.116a33.347,33.347,0,0,0-7.81,1.085c-11.4,3.3-19.068,10.55-22.868,21.82-.092.274-.693.765.182,1.089.814.3.821-.216.955-.661A31.312,31.312,0,0,1,414.285,331a30.927,30.927,0,0,1,20.143,10.641,29.8,29.8,0,0,1,6.24,11.32c.154.518.3.793.942.525.788-.329.253-.773.148-1.113A32.733,32.733,0,0,0,410.375,329.511Zm7.345,27.527a8.392,8.392,0,1,0-8.4,8.415A8.393,8.393,0,0,0,417.72,357.038Zm23.511,12.369c.635.052.78-.076.649-.74a4.9,4.9,0,0,0-.846-2.211c-.713-.88-.711-1.392.383-2.066,2.126-1.309,2.131-2.19.317-3.857a3.316,3.316,0,0,0-.684-.534c-.647-.332-.575-.671-.151-1.171a7.3,7.3,0,0,0,1.315-2.817c.194-.677.059-.737-.567-.651a6.75,6.75,0,0,0-5.8,5.023c-.23.7-.469,1.183-1.288,1.136-.458-.026-.646.28-.682.678a.572.572,0,0,0,.536.694c1,.015,1.2.713,1.422,1.479C436.645,367.146,438.887,369.216,441.232,369.407Zm-61.887-.662c-.129.937.5.715.961.6a6.734,6.734,0,0,0,5.121-5.055c.215-.733.4-1.394,1.36-1.39.394,0,.56-.342.559-.684,0-.326-.114-.717-.533-.677-1.084.1-1.282-.661-1.55-1.433a6.589,6.589,0,0,0-5.664-4.736c-.614-.086-.8-.005-.6.654a6.871,6.871,0,0,0,1.262,2.712c.6.67.327.906-.253,1.4-2.539,2.178-2.669,2.413.163,4.479.7.508.7.85.251,1.448A6.007,6.007,0,0,0,379.344,368.745Zm52.777-15.465a6.148,6.148,0,0,0-6.152-6.159,6.2,6.2,0,1,0,.029,12.4A6.072,6.072,0,0,0,432.122,353.279Zm-33.211,48.788-.257-.012c.138-1.181.228-2.37.434-3.538.106-.6-.21-.679-.62-.768-.553-.12-.475.315-.5.6q-.271,3.2-.509,6.395c-.028.368-.161.772.46.892.646.125.63-.375.766-.689.423-.978.8-1.976,1.193-2.966a8.279,8.279,0,0,1,.018,3.092c-.076.368-.329.9.284,1.119.67.244.785-.311.959-.725.794-1.9,1.589-3.8,2.34-5.709.083-.21.561-.567-.106-.829-.6-.238-.759.019-.925.488-.438,1.239-.9,2.471-1.349,3.705a34.161,34.161,0,0,1,.25-4.042c.029-.3.158-.648-.369-.729-.417-.064-.616-.051-.777.432C399.832,399.9,399.349,400.976,398.911,402.068Zm16.2,1.309-.3.018c-.265-1.158-.512-2.32-.805-3.47-.084-.33.014-.862-.613-.821-.6.039-.622.438-.652.91a13.388,13.388,0,0,1-.281,3.287,29.561,29.561,0,0,1-.821-3.3c-.085-.436-.146-.776-.734-.656-.66.136-.417.613-.339.932.493,2.022,1.019,4.036,1.563,6.045.078.287.013.743.632.659.567-.077.59-.367.59-.8a20.65,20.65,0,0,1,.31-3.9c.362,1.43.707,2.7,1,3.991.078.347.15.526.538.466.334-.052.586-.07.609-.545.107-2.246.268-4.489.393-6.733.013-.24.169-.66-.345-.584-.33.049-.768.023-.736.577.016.289,0,.58,0,.871Q415.105,401.849,415.106,403.376ZM376.04,340.271l.091-.2c1.171.319,2.344.631,3.511.962.483.137.732-.091.96-.474.281-.473-.13-.551-.374-.715q-2.606-1.755-5.22-3.5c-.322-.216-.573-.543-.967-.007-.467.635.115.752.4.959.887.633,1.808,1.219,2.716,1.823a15.879,15.879,0,0,1-3.747-.777c-.518-.168-.738.035-.961.407-.281.47.157.552.4.715q2.608,1.767,5.229,3.515c.286.191.548.5.9.017s.083-.677-.285-.92C377.8,341.488,376.923,340.874,376.04,340.271Zm3.968,43.686a4.967,4.967,0,0,0-1.162-2.1c-.158-.235-.359-.129-.552,0q-2.81,1.946-5.627,3.883c-.188.129-.316.235-.22.518a3.829,3.829,0,0,0,2.192,2.1,2.667,2.667,0,0,0,2.414-1.846c.137-.391.252-.394.639-.385A2.325,2.325,0,0,0,380.008,383.957Zm56.4,14.609c-.473-.512-.93-1.025-1.407-1.518a2.732,2.732,0,0,1-1.1-1.936,2.514,2.514,0,0,0-1.8-2.356c-1.055-.29-1.769.641-2.6,1.1-.352.2-.1.437.019.629,1.187,1.858,2.385,3.709,3.574,5.567.223.348.411.515.846.207.4-.285.421-.483.153-.861-.419-.589-.783-1.218-1.175-1.826-.121-.187-.253-.349-.01-.554.26-.221.406.008.543.134a13.945,13.945,0,0,1,1.391,1.375C435.416,399.246,435.919,399.2,436.406,398.566Zm.284-72.2c0-.7-1.7-2.423-2.268-2.34-.146.022-.3.2-.394.339-1.234,1.821-2.451,3.656-3.694,5.471-.261.381-.26.589.152.86s.59.173.82-.222c.343-.589.751-1.141,1.152-1.694.131-.181.236-.526.57-.312.273.176.16.423.059.673a18.7,18.7,0,0,1-.792,2c-.353.64.035.85.456,1.07.652.34.485-.347.606-.568a8.071,8.071,0,0,0,.534-1.416,2.277,2.277,0,0,1,1.27-1.567A3.077,3.077,0,0,0,436.69,326.37Zm-29.22-5.632-.049,0c.074,1.225.24,2.454.2,3.675-.036,1.008.344,1.2,1.243,1.125,1.534-.126,2.277-.529,2.3-1.6a22.015,22.015,0,0,0-.138-4.543c-.28-1.528-.948-1.944-3-1.674-1.23.162-.341,1.146-.529,1.721A4.342,4.342,0,0,0,407.47,320.738Zm-25.786,76.094c.484-.855.954-1.705,1.446-2.543.173-.294.287-.6.759-.663a2.777,2.777,0,0,0,2.2-2.006c.375-.995-.386-1.6-1.039-2.187a2.545,2.545,0,0,1-.31-.305c-.336-.427-.6-.333-.94.037q-2.207,2.4-4.465,4.751c-.307.319-.39.493-.013.829.336.3.532.391.858,0,.463-.556.973-1.073,1.485-1.585.14-.139.23-.523.566-.232.262.227.128.447-.006.67a16.485,16.485,0,0,1-.95,1.568C380.75,395.856,380.784,396.38,381.684,396.832Zm39.695,1.792a24.087,24.087,0,0,0,1.959,5.35,1.462,1.462,0,0,0,2,.562,1.578,1.578,0,0,0,1.13-1.96,27.944,27.944,0,0,0-1.721-4.884,1.535,1.535,0,0,0-2.016-.811A1.609,1.609,0,0,0,421.379,398.624Zm1.809-72.4a1.585,1.585,0,0,0,1.8,1.674c.167-.029.357-.173.485-.125.745.276.737.289,1.034-.484.181-.471.377-.937.554-1.411.448-1.2.3-1.451-.939-1.7-.187-.038-.374-.126-.457.078s-.34.565-.126.676c.976.5.116,1.021.035,1.5-.073.43-.441.552-.844.417-.444-.149-.339-.553-.246-.824.5-1.456,1.029-2.9,1.578-4.341a.561.561,0,0,1,.771-.4.623.623,0,0,1,.376.882c-.062.17-.1.349-.178.512-.2.434.114.418.387.539.315.141.491.184.689-.16a1.879,1.879,0,0,0-.556-2.648,1.73,1.73,0,0,0-2.644.952c-.557,1.363-1.041,2.757-1.544,4.142A5.8,5.8,0,0,0,423.187,326.22ZM439.108,389.6a4.912,4.912,0,0,1-1.431-1.33c-.342-.383-.549-.3-.862.006-.28.273-.346.457-.038.768q2.373,2.391,4.709,4.817c.315.328.521.25.793-.037.247-.263.443-.467.068-.79a10.471,10.471,0,0,1-.995-1c-.4-.449-1.038-.778-.867-1.625.838.5,1.614.96,2.389,1.423.948.567.947.568,1.624-.359-2.088-1.5-5.264-1.846-5.328-5.495C437.584,387.391,439.306,388.365,439.108,389.6Zm6.515-7.123c-.6-.022-1.4.154-1.515-.655-.15-1.014.672-.586,1.187-.643.3-.033.366-.425.456-.683.131-.376-.239-.363-.448-.442a1.747,1.747,0,0,0-2.242.963,2,2,0,0,0,1.238,2.55,5.722,5.722,0,0,0,2.9-.1,2.253,2.253,0,0,1,1.378.119c.338.165.621.42.454.85-.137.353-.426.723-.8.553-.64-.287-1.076-.078-1.09.5-.015.617.666.59,1.127.678a1.113,1.113,0,0,0,.725-.148,1.931,1.931,0,0,0,1.217-2.077,2.3,2.3,0,0,0-2-1.707A25.227,25.227,0,0,0,445.622,382.475Zm-49.857-55.41c-.216-.526-.37-.971-.578-1.39-.246-.5-.317-.873.366-1.049.418-.108.65-.267.412-.839-.257-.618-.569-.3-.822-.166-.515.282-.717.108-.956-.376-.448-.911-.514-1.578.721-1.785.415-.07.62-.253.4-.755s-.474-.407-.847-.24a12.263,12.263,0,0,1-1.615.623c-.579.165-.6.451-.4.945.608,1.459,1.174,2.936,1.763,4.4.93,2.317.931,2.312,3.181,1.253.363-.171.6-.288.378-.791-.2-.439-.332-.553-.771-.308A9.036,9.036,0,0,1,395.766,327.065Zm22.152-1.074c.485.008.883.217.959-.462.085-.749-.4-.552-.781-.677-.364-.121-1.229.118-.951-.6.234-.6-.57-2.014,1.092-1.754.28.044.615.053.586-.4-.016-.255.19-.687-.277-.67-1.538.057-.713-1.029-.8-1.64-.068-.474.255-.628.7-.516.244.061.486.133.733.174.448.075.645-.12.7-.581.062-.507-.223-.5-.575-.54a11.333,11.333,0,0,1-1.717-.249c-.548-.141-.767-.027-.848.559-.3,2.15-.644,4.294-.968,6.441-.052.345-.051.641.437.68C416.823,325.814,417.429,325.924,417.918,325.991Zm29.114,12.355a2.43,2.43,0,0,1,.825,1.1c.214.378.438.39.778.2s.442-.413.2-.77c-.366-.538-.729-1.082-1.042-1.651-.262-.474-.495-.459-.924-.175-1.354.9-2.741,1.743-4.117,2.606-1.883,1.182-1.881,1.179-.672,3.079.238.374.337.863.993.44s.091-.7-.032-1.032c-.157-.425-.935-.915.012-1.246.579-.2,1.108-1.63,1.868-.2.206.386.43.379.778.161.367-.229.377-.442.162-.782-.189-.3-.755-.61-.04-.981C446.236,338.881,446.62,338.6,447.032,338.346Zm-53.9,58.311c.384-.026.4-.348.545-.535.19-.24-.019-.409-.2-.518-.59-.351-1.2-.665-1.787-1.028-.387-.241-.591-.214-.831.22q-1.6,2.884-3.273,5.724c-.267.453-.122.713.278.822.815.222,1.322,1.339,2.311.893.326-.147.554-.723-.136-.962-1.1-.38-1.191-1.015-.459-1.853a.6.6,0,0,0,.1-.191c.207-.566.531-.688,1.034-.309.272.205.54.433.829-.066s.092-.7-.326-.9c-1.185-.557-.015-1.026.089-1.513.147-.684.583-.529,1.024-.232C392.595,396.389,392.891,396.526,393.131,396.658ZM438.34,337.4c.245-.227.569-.387.645-.627.151-.474-.37-.642-.62-.9-.354-.371-.709-.73-.07-1.058.535-.274.724-1.65,1.7-.627.354.37.592.4.975.048.4-.37.108-.589-.125-.769-.576-.448-.318-.709.064-1.159.683-.807,1.192-.838,1.782.053.173.261.371.628.833.208.442-.4.283-.635-.042-.952a17.326,17.326,0,0,1-1.276-1.339c-.325-.394-.529-.284-.84.017-1.2,1.162-2.423,2.3-3.639,3.442-1.578,1.485-1.58,1.485-.02,3.065C437.909,337,438.117,337.185,438.34,337.4ZM377.511,368.62c.2.023.451.176.523-.016.382-1.025.729-2.063,1.062-3.1.027-.084-.127-.243-.221-.345-.946-1.03-1.267-1.043-2.314-.115a7.338,7.338,0,0,0-1.336,1.559c-.776,1.22-.708,1.289.722,1.756C376.483,368.53,377.031,368.421,377.511,368.62Zm-.35-12.39c-.659.176-1.32.349-1.978.529-.834.228-.86.676-.4,1.321a9.115,9.115,0,0,0,1.477,1.716c1.113.941,1.318,1,2.309-.1,1.026-1.14-.725-1.856-.6-2.925C378.019,356.347,377.587,356.219,377.161,356.23Zm66.351,12.42a11.368,11.368,0,0,0,2.516-.518c.514-.216.558-.422.327-.887a8.226,8.226,0,0,0-2.188-2.639c-.656-.551-1.022-.021-1.482.277-.481.312-.774.732-.466,1.261a9.279,9.279,0,0,1,.795,2.1C443.093,368.518,443.193,368.715,443.512,368.65Zm.782-12.347a3.953,3.953,0,0,0-.457-.021,7.055,7.055,0,0,0-1.536,3.111,1.377,1.377,0,0,0,.234.223c1.195,1.177,1.48,1.183,2.8-.173.613-.631,1.627-1.379,1.32-2.182C446.332,356.423,445.052,356.522,444.293,356.3Zm-67.358,6.08a1.934,1.934,0,0,0-2.225-1.67c-.977.363-2.168.91-2.341,1.856-.128.7,1.136,1.16,1.9,1.553A1.892,1.892,0,0,0,376.936,362.383Zm67.371.118a1.842,1.842,0,0,0,2.583,1.642c.778-.373,1.951-.76,1.934-1.543-.019-.9-1.178-1.345-2.019-1.75A1.822,1.822,0,0,0,444.306,362.5Zm-65.3-31.992c-.23.236-.443.432-.629.651-.282.334.11.438.251.576,1.547,1.517,3.117,3.01,4.661,4.53.336.33.54.462.929.032.34-.376.265-.559-.051-.862-1.591-1.522-3.163-3.064-4.745-4.6A5.3,5.3,0,0,0,379.011,330.509Zm72.255,30.528c-.624.2-1.258.391-.86,1.3.074.169.173.332.031.5-.645.758.214,1.076.527,1.377.507.487,1-.116,1.422-.38.5-.31,1.116-.541,1.284-1.216a.131.131,0,0,0-.044-.095A4.036,4.036,0,0,0,451.266,361.037Zm-81.574.026a2.821,2.821,0,0,0-2.013,1.481c-.3.673.72.9,1.169,1.314a4.415,4.415,0,0,0,.568.311c.331.219.677.379.933-.049.22-.368,1.042-.517.487-1.2-.157-.193-.121-.354-.04-.586C371.053,361.6,370.607,361.037,369.691,361.063Zm4.481-1.683c.011-.455-.965-1.643-1.335-1.527-.836.261-1.894.344-2.306,1.179-.318.644.577,1.042.888,1.575.271.465.507.472.905.158.45-.355.948-.651,1.43-.965C373.926,359.686,374.167,359.653,374.172,359.379Zm72.828.115a7.869,7.869,0,0,1,1.447.932c.7.7,1.21.634,1.7-.191.11-.186.281-.333.405-.512a.711.711,0,0,0-.258-1.164c-1.787-1.121-2.28-1.007-3.264.829A.486.486,0,0,0,447,359.495Zm-74.26,7.712c1.241.074,1.2-.87,1.491-1.4s-.435-.491-.7-.7c-.367-.286-.8-.488-1.192-.741-.184-.119-.326-.276-.535-.019-.342.42-.746.794-1.057,1.234-.291.411-.265.874.256,1.082C371.638,366.916,372.31,367.076,372.74,367.207Zm74.128-1.66c.193.422.374.812.55,1.2a.85.85,0,0,0,1.2.407c.7-.275,1.66-.1,2.022-1.031a.59.59,0,0,0-.074-.416,3.28,3.28,0,0,0-1.293-1.434c-.386-.2-.691.391-1.073.56C447.745,365.041,447.315,365.306,446.868,365.547Z" transform="translate(-356.228 -308.07)" fill="#090202" fill-rule="evenodd"/>
      <path id="Path_4" data-name="Path 4" d="M493.557,446.778a16.674,16.674,0,0,1-5.448-1.371,12.9,12.9,0,0,1-7.616-12.886,13.4,13.4,0,0,1,10.41-12.265,13.542,13.542,0,0,1,11.523,2.256c.3.217.973.318.4,1.023-.46.568-.747.649-1.362.213a12.3,12.3,0,0,0-18.94,6.193,11.643,11.643,0,0,0,8.927,14.95c.861.171,1.721.219,2.581.306,1.76.177,2.067.781,1.083,2.3q-3.077,4.74-6.178,9.465c-.824,1.259-.789,1.417.528,2.121.32.171.631.356.951.526a1,1,0,0,0,1.469-.417q5.668-8.622,11.348-17.238c.516-.786.962-1.62,1.4-2.453.275-.522.447-.889,1.2-.507.828.422.41.816.175,1.273a80.549,80.549,0,0,1-4.458,7.067c-2.757,4.216-5.55,8.409-8.331,12.611-1.076,1.626-2.014,1.85-3.76.911-3.241-1.744-3.391-2.313-1.381-5.41,1.636-2.521,3.29-5.031,4.928-7.55A2.388,2.388,0,0,0,493.557,446.778Z" transform="translate(-441.151 -384.426)" fill="#efeded" fill-rule="evenodd"/>
      <path id="Path_5" data-name="Path 5" d="M456.512,537.112a32.786,32.786,0,0,1-31.1-22.948c-.169-.563-.306-1.012.56-1.112.716-.082.552.488.637.761a30.479,30.479,0,0,0,7.27,12.327,31.322,31.322,0,0,0,52.528-12.2c.1-.318-.086-.951.645-.885.8.074.752.51.564,1.1a32.663,32.663,0,0,1-31.1,22.957Z" transform="translate(-402.007 -450.555)" fill="#eeebeb" fill-rule="evenodd"/>
      <path id="Path_6" data-name="Path 6" d="M455.927,371.788a32.733,32.733,0,0,1,31.384,22.865c.1.341.64.784-.148,1.113-.641.268-.788-.008-.942-.525a29.8,29.8,0,0,0-6.24-11.32,30.928,30.928,0,0,0-20.143-10.641,31.312,31.312,0,0,0-33.45,21.839c-.135.446-.142.962-.956.661-.875-.324-.275-.815-.182-1.089,3.8-11.27,11.465-18.518,22.868-21.82A33.35,33.35,0,0,1,455.927,371.788Z" transform="translate(-401.779 -350.347)" fill="#eeebeb" fill-rule="evenodd"/>
      <path id="Path_7" data-name="Path 7" d="M515.819,445.915a8.392,8.392,0,1,1-8.4-8.437A8.348,8.348,0,0,1,515.819,445.915Zm-1.531-.032a6.8,6.8,0,0,0-6.948-6.826,6.874,6.874,0,0,0-6.781,6.786,6.865,6.865,0,1,0,13.729.04Z" transform="translate(-454.327 -396.947)" fill="#efeeee" fill-rule="evenodd"/>
      <path id="Path_8" data-name="Path 8" d="M619.735,474.714c-2.345-.191-4.586-2.261-5.4-5.035-.224-.765-.417-1.463-1.422-1.479a.572.572,0,0,1-.536-.694c.035-.4.224-.7.682-.678.819.047,1.058-.435,1.288-1.137a6.75,6.75,0,0,1,5.8-5.023c.626-.086.761-.026.567.651a7.294,7.294,0,0,1-1.315,2.817c-.423.5-.5.838.151,1.171a3.313,3.313,0,0,1,.684.534c1.814,1.668,1.809,2.548-.317,3.857-1.094.674-1.1,1.186-.383,2.065a4.9,4.9,0,0,1,.846,2.211C620.515,474.638,620.37,474.766,619.735,474.714Z" transform="translate(-534.731 -413.377)" fill="#f3f2f2" fill-rule="evenodd"/>
      <path id="Path_10" data-name="Path 10" d="M576.168,438.539a6.072,6.072,0,0,1-6.124,6.244,6.2,6.2,0,1,1-.029-12.4A6.148,6.148,0,0,1,576.168,438.539Zm-10.732.023a4.534,4.534,0,0,0,4.548,4.638,4.632,4.632,0,1,0,.021-9.264A4.535,4.535,0,0,0,565.436,438.562Z" transform="translate(-500.275 -393.33)" fill="#f1efee" fill-rule="evenodd"/>
      <path id="Path_11" data-name="Path 11" d="M488.448,610.88c.438-1.091.921-2.167,1.293-3.28.161-.483.36-.5.777-.432.527.081.4.429.369.729a34.167,34.167,0,0,0-.25,4.042c.451-1.234.912-2.466,1.349-3.705.166-.469.321-.726.925-.488.667.263.188.619.106.829-.751,1.914-1.546,3.812-2.34,5.709-.173.414-.289.969-.959.725-.612-.223-.36-.751-.284-1.119a8.277,8.277,0,0,0-.018-3.092c-.394.99-.77,1.988-1.193,2.966-.136.314-.12.814-.766.689-.621-.121-.488-.525-.46-.892q.238-3.2.509-6.395c.025-.29-.053-.725.5-.6.41.089.726.165.62.768-.206,1.168-.3,2.357-.434,3.538Z" transform="translate(-445.765 -516.882)" fill="#ebe7e8" fill-rule="evenodd"/>
      <path id="Path_12" data-name="Path 12" d="M536.433,614.961q0-1.527,0-3.054c0-.29.017-.581,0-.87-.032-.554.406-.528.736-.577.514-.076.359.344.345.584-.125,2.245-.286,4.488-.393,6.733-.023.474-.275.492-.609.545-.388.06-.461-.119-.538-.466-.289-1.287-.633-2.561-1-3.991a20.652,20.652,0,0,0-.31,3.9c0,.436-.023.726-.59.8-.618.084-.554-.372-.632-.659-.544-2.009-1.07-4.023-1.563-6.045-.078-.319-.32-.8.339-.932.589-.121.649.22.734.656a29.578,29.578,0,0,0,.821,3.3,13.382,13.382,0,0,0,.281-3.287c.03-.473.055-.871.652-.91.627-.041.528.491.613.822.293,1.151.541,2.312.805,3.47Z" transform="translate(-477.555 -519.656)" fill="#ece9ea" fill-rule="evenodd"/>
      <path id="Path_13" data-name="Path 13" d="M404.385,398.5c.883.6,1.76,1.217,2.654,1.8.368.242.636.431.285.92s-.613.174-.9-.017q-2.619-1.751-5.229-3.515c-.24-.163-.678-.245-.4-.715.223-.372.443-.575.961-.407a15.882,15.882,0,0,0,3.747.777c-.908-.6-1.829-1.19-2.716-1.823-.289-.207-.871-.324-.4-.959.394-.536.645-.21.967.007q2.609,1.751,5.22,3.5c.243.164.655.242.374.715-.227.383-.477.611-.96.474-1.167-.332-2.34-.643-3.511-.962Z" transform="translate(-384.573 -366.296)" fill="#ece9ea" fill-rule="evenodd"/>
      <path id="Path_14" data-name="Path 14" d="M443.84,358c-.581-.866-1.167-1.728-1.74-2.6-.183-.279-.518-.533-.028-.894s.66-.125.917.249c1.2,1.755,2.434,3.492,3.641,5.245.162.236.488.5.029.8-.3.2-.531.42-.936.105-.939-.732-1.924-1.4-2.89-2.1-.121-.123-.262-.349-.419-.2-.1.092.092.279.263.335.578.867,1.151,1.737,1.735,2.6.209.307.422.553-.038.867-.407.277-.6.177-.846-.192-1.213-1.79-2.451-3.564-3.678-5.344-.156-.226-.452-.453-.11-.733.316-.258.62-.421,1.047-.076.923.747,1.9,1.43,2.852,2.139l.305.235A.278.278,0,0,0,443.84,358Z" transform="translate(-412.15 -337.963)" fill="#edebeb" fill-rule="evenodd"/>
      <path id="Path_15" data-name="Path 15" d="M408.48,553.676a2.325,2.325,0,0,1-2.315,2.169c-.388-.009-.5-.006-.639.385a2.667,2.667,0,0,1-2.414,1.846,3.829,3.829,0,0,1-2.192-2.1c-.1-.283.032-.389.22-.519q2.815-1.938,5.626-3.883c.192-.133.394-.239.552,0A4.968,4.968,0,0,1,408.48,553.676Zm-4.386,1.154A17.514,17.514,0,0,0,402.48,556c-.206.183.081.452.257.61.45.4.855.121,1.259-.117a.988.988,0,0,0,.555-1.243A.508.508,0,0,0,404.094,554.83Zm3.266-1.189c-.21-.226-.25-.8-.583-.61-.556.324-1.3.554-1.5,1.236-.066.224.365.61.8.518A1.611,1.611,0,0,0,407.36,553.641Z" transform="translate(-384.7 -477.789)" fill="#eeebeb" fill-rule="evenodd"/>
      <path id="Path_16" data-name="Path 16" d="M603.775,595.1c-.487.639-.99.679-1.574-.038a13.944,13.944,0,0,0-1.391-1.375c-.136-.126-.282-.355-.543-.134-.242.206-.111.367.01.555.392.609.757,1.237,1.176,1.826.268.377.251.575-.153.861-.436.308-.623.142-.846-.207-1.189-1.857-2.387-3.708-3.574-5.567-.122-.191-.371-.433-.019-.628.832-.463,1.547-1.394,2.6-1.1a2.514,2.514,0,0,1,1.8,2.356,2.732,2.732,0,0,0,1.1,1.936C602.846,594.077,603.3,594.59,603.775,595.1Zm-4.853-4.634c-.26.091-.746.149-.591.524a3.042,3.042,0,0,0,1.2,1.676c.174.092.613-.294.627-.727C600.174,591.363,599.444,590.462,598.922,590.467Z" transform="translate(-523.598 -504.605)" fill="#ece9ea" fill-rule="evenodd"/>
      <path id="Path_17" data-name="Path 17" d="M606.119,355.259a3.076,3.076,0,0,1-1.529,2.3,2.277,2.277,0,0,0-1.27,1.567,8.068,8.068,0,0,1-.534,1.416c-.121.22.045.908-.607.568-.422-.22-.809-.43-.456-1.07a18.709,18.709,0,0,0,.792-2c.1-.25.215-.5-.059-.673-.333-.214-.438.131-.57.312a20.472,20.472,0,0,0-1.152,1.694c-.23.395-.4.5-.82.222s-.413-.479-.152-.86c1.243-1.815,2.459-3.65,3.694-5.471.1-.141.248-.317.394-.339C604.417,352.836,606.122,354.561,606.119,355.259Zm-2.5,1.406c.513-.014,1.188-.871,1.194-1.415a.766.766,0,0,0-.62-.772,5.137,5.137,0,0,0-1.244,1.7A.674.674,0,0,0,603.621,356.664Z" transform="translate(-525.657 -336.959)" fill="#edebeb" fill-rule="evenodd"/>
      <path id="Path_18" data-name="Path 18" d="M521.249,334.048a4.34,4.34,0,0,1,.025-1.294c.189-.575-.7-1.559.529-1.721,2.052-.27,2.721.146,3,1.674a22.014,22.014,0,0,1,.138,4.543c-.026,1.071-.769,1.474-2.3,1.6-.9.074-1.279-.117-1.243-1.125.044-1.221-.121-2.45-.2-3.675Zm1.123.713h.164c0,.724-.021,1.45.011,2.173.012.268-.168.7.4.7.508,0,.887-.179.872-.725-.039-1.375-.1-2.751-.207-4.123a.763.763,0,0,0-.857-.671c-.654,0-.357.508-.375.8C522.344,333.527,522.372,334.145,522.372,334.761Z" transform="translate(-470.007 -321.381)" fill="#edebeb" fill-rule="evenodd"/>
      <path id="Path_19" data-name="Path 19" d="M426.406,583.957c-.9-.452-.934-.976-.409-1.665a16.489,16.489,0,0,0,.95-1.568c.134-.223.268-.443.006-.67-.337-.291-.427.093-.566.233-.512.512-1.022,1.029-1.485,1.585-.326.391-.522.3-.858,0-.377-.336-.293-.51.013-.829q2.259-2.351,4.465-4.752c.34-.37.6-.465.94-.037a2.546,2.546,0,0,0,.31.305c.653.588,1.413,1.192,1.039,2.187a2.777,2.777,0,0,1-2.2,2.006c-.472.062-.586.368-.759.663C427.36,582.252,426.89,583.1,426.406,583.957Zm1.837-4.336c.535.019,1.492-.908,1.461-1.354a.926.926,0,0,0-.561-.74,5.875,5.875,0,0,0-1.548,1.559A.846.846,0,0,0,428.243,579.621Z" transform="translate(-400.95 -495.195)" fill="#eeecec" fill-rule="evenodd"/>
      <path id="Path_20" data-name="Path 20" d="M569.369,605.119a1.609,1.609,0,0,1,1.35-1.742,1.535,1.535,0,0,1,2.016.811,27.944,27.944,0,0,1,1.721,4.884,1.577,1.577,0,0,1-1.13,1.959,1.462,1.462,0,0,1-2-.562A24.093,24.093,0,0,1,569.369,605.119Zm1.706-.72c-.554.1-.647.472-.477.96.489,1.4.976,2.8,1.5,4.192.123.33.343.678.813.532.514-.159.529-.576.394-.969-.479-1.392-.995-2.771-1.493-4.156A.7.7,0,0,0,571.075,604.4Z" transform="translate(-504.218 -514.565)" fill="#edebeb" fill-rule="evenodd"/>
      <path id="Path_21" data-name="Path 21" d="M575.607,345.579a5.809,5.809,0,0,1,.179-.712c.5-1.385.987-2.778,1.545-4.142a1.73,1.73,0,0,1,2.644-.952,1.879,1.879,0,0,1,.556,2.648c-.2.344-.374.3-.689.16-.273-.121-.589-.105-.387-.539.076-.163.115-.342.178-.512a.623.623,0,0,0-.376-.882.561.561,0,0,0-.771.4c-.549,1.438-1.08,2.884-1.578,4.341-.093.271-.2.675.246.824.4.135.772.013.844-.417.082-.484.941-1-.035-1.5-.215-.111.037-.461.126-.676s.27-.115.457-.078c1.236.247,1.387.5.939,1.7-.177.473-.372.939-.554,1.411-.3.773-.29.76-1.034.484-.128-.047-.319.1-.485.125A1.585,1.585,0,0,1,575.607,345.579Z" transform="translate(-508.648 -327.429)" fill="#ebe7e8" fill-rule="evenodd"/>
      <path id="Path_22" data-name="Path 22" d="M624.207,569.718c.2-1.234-1.524-2.207.062-3.623.063,3.649,3.24,4,5.328,5.495-.677.927-.676.926-1.624.359-.775-.463-1.551-.924-2.389-1.423-.171.847.472,1.176.867,1.625a10.441,10.441,0,0,0,.995,1c.375.323.179.528-.068.79-.271.287-.477.364-.793.037q-2.336-2.426-4.709-4.817c-.308-.31-.242-.5.038-.768.313-.3.52-.389.862-.006A4.912,4.912,0,0,0,624.207,569.718Zm.108.22.071-.065-.067-.068-.066.1Z" transform="translate(-541.327 -488.189)" fill="#edebeb" fill-rule="evenodd"/>
      <path id="Path_23" data-name="Path 23" d="M646.267,547.855a25.239,25.239,0,0,1,2.581-.234,2.3,2.3,0,0,1,2,1.707,1.931,1.931,0,0,1-1.217,2.077,1.112,1.112,0,0,1-.725.148c-.461-.087-1.142-.061-1.127-.678.014-.582.45-.791,1.09-.5.378.17.667-.2.8-.553.167-.43-.116-.685-.454-.85a2.252,2.252,0,0,0-1.378-.119,5.723,5.723,0,0,1-2.9.1,2,2,0,0,1-1.238-2.55,1.747,1.747,0,0,1,2.242-.963c.208.079.579.066.447.442-.09.257-.158.65-.456.683-.515.057-1.336-.371-1.187.643C644.871,548.009,645.668,547.833,646.267,547.855Z" transform="translate(-556.872 -473.45)" fill="#ece9ea" fill-rule="evenodd"/>
      <path id="Path_24" data-name="Path 24" d="M472.877,346.923a9.026,9.026,0,0,0,1.242-.477c.439-.245.576-.131.771.308.223.5-.015.62-.378.791-2.25,1.059-2.25,1.064-3.181-1.253-.589-1.467-1.155-2.943-1.763-4.4-.206-.494-.183-.779.4-.945a12.24,12.24,0,0,0,1.615-.623c.373-.167.628-.269.847.24s.011.685-.4.755c-1.235.207-1.169.874-.721,1.785.238.484.441.658.956.376.253-.138.565-.452.822.166.238.572.006.732-.412.839-.684.176-.612.554-.366,1.049C472.507,345.952,472.661,346.4,472.877,346.923Z" transform="translate(-433.339 -327.928)" fill="#ece9ea" fill-rule="evenodd"/>
      <path id="Path_25" data-name="Path 25" d="M552.19,340.237c-.488-.067-1.094-.177-1.7-.226-.489-.039-.489-.336-.437-.68.324-2.147.67-4.291.968-6.441.081-.586.3-.7.848-.559a11.326,11.326,0,0,0,1.717.249c.352.035.637.033.574.54-.057.461-.253.656-.7.581-.247-.042-.49-.113-.734-.174-.446-.112-.769.042-.7.516.087.61-.738,1.7.8,1.64.468-.017.261.414.277.67.029.452-.306.443-.586.4-1.662-.26-.859,1.153-1.092,1.754-.278.714.587.475.951.6.38.126.866-.072.781.677C553.072,340.454,552.674,340.245,552.19,340.237Z" transform="translate(-490.5 -322.316)" fill="#eeebeb" fill-rule="evenodd"/>
      <path id="Path_26" data-name="Path 26" d="M643.527,398.541c-.412.258-.8.535-1.211.75-.715.371-.149.682.04.981.214.34.2.553-.162.782-.348.217-.572.225-.778-.161-.76-1.43-1.289,0-1.868.2-.947.331-.169.822-.013,1.246.123.335.7.6.032,1.032s-.755-.066-.993-.44c-1.209-1.9-1.211-1.9.672-3.079,1.376-.863,2.763-1.71,4.117-2.606.429-.284.662-.3.924.175.314.569.677,1.113,1.042,1.651.242.356.154.573-.2.77s-.564.177-.778-.2A2.431,2.431,0,0,0,643.527,398.541Z" transform="translate(-552.723 -368.265)" fill="#edebeb" fill-rule="evenodd"/>
      <path id="Path_27" data-name="Path 27" d="M458.3,597.4c-.24-.132-.536-.268-.8-.449-.441-.3-.878-.452-1.024.232-.1.487-1.274.955-.089,1.513.419.2.615.4.326.9s-.557.271-.829.066c-.5-.38-.826-.257-1.034.309a.6.6,0,0,1-.1.191c-.732.839-.641,1.473.459,1.853.69.239.462.815.136.962-.989.446-1.5-.672-2.311-.894-.4-.109-.545-.369-.278-.822q1.674-2.84,3.273-5.724c.241-.434.445-.461.831-.22.583.363,1.2.677,1.786,1.028.183.109.393.278.2.518C458.7,597.055,458.686,597.377,458.3,597.4Z" transform="translate(-421.398 -508.816)" fill="#edebeb" fill-rule="evenodd"/>
      <path id="Path_28" data-name="Path 28" d="M623.367,380.906c-.222-.212-.431-.4-.629-.6-1.56-1.58-1.558-1.58.02-3.065,1.216-1.144,2.44-2.281,3.639-3.442.31-.3.515-.411.839-.017a17.326,17.326,0,0,0,1.276,1.339c.325.318.484.552.042.952-.462.42-.66.053-.833-.208-.59-.891-1.1-.859-1.782-.053-.381.45-.64.711-.064,1.159.233.18.524.4.125.769-.383.355-.621.322-.975-.048-.98-1.023-1.169.352-1.7.627-.639.328-.284.687.07,1.057.25.262.771.43.62.9C623.935,380.519,623.611,380.68,623.367,380.906Z" transform="translate(-541.255 -351.58)" fill="#eeebeb" fill-rule="evenodd"/>
      <path id="Path_31" data-name="Path 31" d="M642.082,496.014c-.319.065-.419-.132-.5-.4a9.285,9.285,0,0,0-.795-2.1c-.309-.529-.015-.95.466-1.262.46-.3.826-.828,1.482-.277a8.228,8.228,0,0,1,2.188,2.639c.231.465.187.672-.327.887A11.372,11.372,0,0,1,642.082,496.014Z" transform="translate(-554.798 -435.434)" fill="#f3f0f1" fill-rule="evenodd"/>
      <path id="Path_32" data-name="Path 32" d="M643.333,463.927c.758.219,2.039.12,2.358.957.306.8-.707,1.551-1.32,2.182-1.317,1.356-1.6,1.351-2.8.173a1.372,1.372,0,0,1-.234-.223,7.056,7.056,0,0,1,1.536-3.111A3.953,3.953,0,0,1,643.333,463.927Z" transform="translate(-555.268 -415.694)" fill="#f3f0f1" fill-rule="evenodd"/>
      <path id="Path_34" data-name="Path 34" d="M648.282,480.916a1.822,1.822,0,0,1,2.5-1.651c.841.4,2,.852,2.019,1.75.017.783-1.156,1.17-1.934,1.543A1.842,1.842,0,0,1,648.282,480.916Z" transform="translate(-560.203 -426.485)" fill="#f1efee" fill-rule="evenodd"/>
      <path id="Path_35" data-name="Path 35" d="M421.807,375.219a5.3,5.3,0,0,1,.416.331c1.582,1.532,3.154,3.074,4.745,4.6.316.3.391.486.051.862-.389.43-.593.3-.929-.032-1.544-1.52-3.115-3.013-4.661-4.53-.141-.138-.533-.242-.251-.576C421.364,375.651,421.578,375.455,421.807,375.219Z" transform="translate(-399.025 -352.781)" fill="#ebe7e8" fill-rule="evenodd"/>
      <path id="Path_36" data-name="Path 36" d="M669.635,480.273A4.035,4.035,0,0,1,672,481.762a.13.13,0,0,1,.044.095c-.169.674-.786.906-1.284,1.216-.424.265-.915.867-1.422.38-.314-.3-1.172-.619-.527-1.377.143-.168.043-.33-.031-.5C668.377,480.664,669.011,480.469,669.635,480.273Z" transform="translate(-574.597 -427.307)" fill="#eeecec" fill-rule="evenodd"/>
      <path id="Path_39" data-name="Path 39" d="M657.553,470.921a.479.479,0,0,1,.026-.106c.984-1.835,1.477-1.95,3.264-.829a.711.711,0,0,1,.258,1.164c-.124.179-.3.326-.405.512-.487.825-.993.893-1.7.191A7.874,7.874,0,0,0,657.553,470.921Z" transform="translate(-566.781 -419.496)" fill="#eeecec" fill-rule="evenodd"/>
      <g id="Group_13" data-name="Group 13" transform="translate(11.396 47.275)">
        <path id="Path_9" data-name="Path 9" d="M421.641,474.088a6.008,6.008,0,0,1,1.08-2.674c.449-.6.445-.94-.251-1.448-2.832-2.067-2.7-2.3-.163-4.479.581-.5.853-.734.253-1.4a6.872,6.872,0,0,1-1.262-2.712c-.2-.66-.017-.74.6-.654a6.59,6.59,0,0,1,5.664,4.736c.267.772.466,1.536,1.55,1.433.419-.04.532.351.533.677,0,.342-.165.686-.559.684-.96,0-1.145.657-1.36,1.39a6.734,6.734,0,0,1-5.121,5.055C422.137,474.8,421.511,475.025,421.641,474.088Z" transform="translate(-409.92 -460.689)" fill="#f3f1f2" fill-rule="evenodd"/>
        <path id="Path_29" data-name="Path 29" d="M411.642,495.974c-.48-.2-1.028-.09-1.563-.265-1.43-.467-1.5-.536-.722-1.756a7.338,7.338,0,0,1,1.336-1.559c1.047-.928,1.368-.916,2.314.115.094.1.248.261.221.345-.333,1.042-.679,2.08-1.061,3.1C412.093,496.151,411.84,496,411.642,495.974Z" transform="translate(-401.755 -482.7)" fill="#f3f0f1" fill-rule="evenodd"/>
        <path id="Path_30" data-name="Path 30" d="M410.687,463.732c.426-.012.858.116.809.539-.124,1.069,1.627,1.785.6,2.925-.991,1.1-1.2,1.043-2.309.1a9.119,9.119,0,0,1-1.477-1.716c-.463-.645-.437-1.094.4-1.321C409.367,464.081,410.028,463.909,410.687,463.732Z" transform="translate(-401.15 -462.847)" fill="#f1efee" fill-rule="evenodd"/>
        <path id="Path_33" data-name="Path 33" d="M405.277,480.673a1.892,1.892,0,0,1-2.667,1.739c-.764-.393-2.027-.858-1.9-1.553.174-.946,1.365-1.493,2.341-1.856A1.934,1.934,0,0,1,405.277,480.673Z" transform="translate(-395.965 -473.635)" fill="#f1efee" fill-rule="evenodd"/>
        <path id="Path_37" data-name="Path 37" d="M386.468,480.361c.915-.026,1.361.534,1.1,1.273-.081.232-.117.393.04.586.554.681-.268.83-.487,1.2-.255.429-.6.268-.932.049a4.415,4.415,0,0,1-.568-.311c-.45-.41-1.469-.64-1.169-1.314A2.821,2.821,0,0,1,386.468,480.361Z" transform="translate(-384.4 -474.644)" fill="#f1efee" fill-rule="evenodd"/>
        <path id="Path_38" data-name="Path 38" d="M397.883,470.822c0,.273-.246.307-.418.418-.482.314-.98.61-1.43.965-.4.314-.634.307-.905-.158-.311-.533-1.205-.931-.888-1.575.412-.835,1.47-.917,2.306-1.179C396.919,469.179,397.895,470.367,397.883,470.822Z" transform="translate(-391.335 -466.788)" fill="#eeecec" fill-rule="evenodd"/>
        <path id="Path_40" data-name="Path 40" d="M396.687,494.187c-.43-.131-1.1-.29-1.737-.543-.522-.208-.547-.671-.256-1.082.311-.44.715-.813,1.057-1.234.209-.258.351-.1.535.019.394.253.825.456,1.192.741.266.207,1,.155.7.7S397.929,494.261,396.687,494.187Z" transform="translate(-391.571 -482.326)" fill="#eeecec" fill-rule="evenodd"/>
      </g>
      <path id="Path_41" data-name="Path 41" d="M657.1,492.591c.447-.241.877-.506,1.334-.709.383-.17.688-.765,1.073-.561a3.28,3.28,0,0,1,1.293,1.434.59.59,0,0,1,.074.416c-.362.927-1.318.756-2.022,1.03a.85.85,0,0,1-1.2-.407C657.473,493.4,657.292,493.013,657.1,492.591Z" transform="translate(-566.459 -435.114)" fill="#f1efee" fill-rule="evenodd"/>
      <path id="Path_42" data-name="Path 42" d="M518.01,449.739a6.865,6.865,0,1,1-6.948-6.826A6.8,6.8,0,0,1,518.01,449.739Z" transform="translate(-458.049 -400.803)" fill="#090202" fill-rule="evenodd"/>
      <path id="Path_43" data-name="Path 43" d="M569.421,442.363a4.534,4.534,0,0,1,4.569-4.626,4.632,4.632,0,1,1-.021,9.264A4.534,4.534,0,0,1,569.421,442.363Z" transform="translate(-504.259 -397.131)" fill="#0b0404" fill-rule="evenodd"/>
      <path id="Path_44" data-name="Path 44" d="M449.527,369.26c-.171-.056-.359-.243-.263-.335.157-.15.3.076.419.2A.966.966,0,0,1,449.527,369.26Z" transform="translate(-419.001 -348.281)" fill="#090202" fill-rule="evenodd"/>
      <path id="Path_45" data-name="Path 45" d="M453.745,366.952a.278.278,0,0,1,.1.44l-.305-.235Z" transform="translate(-422.054 -346.916)" fill="#090202" fill-rule="evenodd"/>
      <path id="Path_46" data-name="Path 46" d="M407.809,563.121a.508.508,0,0,1,.456.416.988.988,0,0,1-.555,1.243c-.4.238-.808.52-1.259.117-.176-.158-.463-.427-.257-.61A17.511,17.511,0,0,1,407.809,563.121Z" transform="translate(-388.415 -486.079)" fill="#150f11" fill-rule="evenodd"/>
      <path id="Path_47" data-name="Path 47" d="M418.069,557.443a1.611,1.611,0,0,1-1.279,1.144c-.436.092-.867-.294-.8-.518.2-.682.941-.912,1.5-1.236C417.818,556.639,417.858,557.217,418.069,557.443Z" transform="translate(-395.409 -481.591)" fill="#150f11" fill-rule="evenodd"/>
      <path id="Path_48" data-name="Path 48" d="M602.879,593.473c.522,0,1.252.9,1.233,1.473-.015.432-.453.818-.627.727a3.043,3.043,0,0,1-1.2-1.676C602.133,593.622,602.619,593.564,602.879,593.473Z" transform="translate(-527.554 -507.611)" fill="#150f11" fill-rule="evenodd"/>
      <path id="Path_49" data-name="Path 49" d="M611.839,360.473a.674.674,0,0,1-.67-.487,5.136,5.136,0,0,1,1.244-1.7.766.766,0,0,1,.62.772C613.027,359.6,612.352,360.459,611.839,360.473Z" transform="translate(-533.875 -340.767)" fill="#150f11" fill-rule="evenodd"/>
      <path id="Path_50" data-name="Path 50" d="M525.286,337.581c0-.616-.027-1.234.012-1.849.018-.293-.279-.8.375-.8a.763.763,0,0,1,.857.671c.105,1.372.168,2.747.207,4.123.015.546-.364.72-.872.725-.572.005-.392-.429-.4-.7-.033-.723-.011-1.448-.011-2.173Z" transform="translate(-472.921 -324.201)" fill="#150f11" fill-rule="evenodd"/>
      <path id="Path_51" data-name="Path 51" d="M437.523,583.417a.846.846,0,0,1-.647-.535,5.874,5.874,0,0,1,1.548-1.558.926.926,0,0,1,.561.74C439.015,582.509,438.058,583.435,437.523,583.417Z" transform="translate(-410.229 -498.99)" fill="#150f11" fill-rule="evenodd"/>
      <path id="Path_52" data-name="Path 52" d="M573.9,607.142a.7.7,0,0,1,.734.559c.5,1.385,1.014,2.764,1.493,4.156.135.393.12.811-.394.969-.471.146-.69-.2-.813-.532-.521-1.389-1.008-2.791-1.5-4.192C573.256,607.614,573.349,607.24,573.9,607.142Z" transform="translate(-507.046 -517.308)" fill="#150f11" fill-rule="evenodd"/>
      <path id="Path_53" data-name="Path 53" d="M630.614,578.994l-.062-.031.066-.1.067.068Z" transform="translate(-547.626 -497.246)" fill="#090202" fill-rule="evenodd"/>
    </g>
    <text id="TM" transform="translate(417.375 334.639)" fill="#eeebeb" font-size="3" font-family="SegoeUI, Segoe UI"><tspan x="0" y="0">TM</tspan></text>
  </g>
</svg>
